<svg xmlns="http://www.w3.org/2000/svg" shape-rendering="geometricPrecision" text-rendering="geometricPrecision" image-rendering="optimizeQuality" fill-rule="evenodd" clip-rule="evenodd" viewBox="0 0 497 511.56"><path fill-rule="nonzero" d="M300.56 479.77c-7.13 10.81-16.58 19.02-27.16 24.39-18.88 9.69-41.39 10.11-60.11-.19-6.34-3.56-12.19-8.33-17.27-14.39l104.54-9.81zm-.19-302.95c3.34-.07 6.74.49 10.04 1.61 6.24 2.11 12.26 6.24 16.89 11.73 4.66 5.51 7.99 12.45 8.83 20.16.39 3.61.24 7.38-.58 11.23 3.5 3.1 6.4 6.61 8.59 10.35 3.32 5.67 5.05 11.96 4.86 18.35-.18 6.43-2.31 12.87-6.68 18.8-2.8 3.79-6.52 7.36-11.22 10.56.48 9.94-2.44 18.87-7.19 25.75-5.33 7.72-13.07 12.95-21.07 14.36-1.71 7.01-6.33 13.2-12.31 17.49-7.45 5.34-17.19 7.84-26.06 5.41-6.62-1.82-12.65-6.23-16.75-14.05-4.99 8.58-11.9 13.11-19.13 14.61-8.59 1.78-17.48-.85-24.17-6.05-5.44-4.24-9.51-10.26-10.89-17.06-2.83-.1-5.69-.65-8.48-1.6-6.08-2.05-11.96-6.05-16.56-11.36-4.6-5.31-7.97-12-9.01-19.45-.55-3.94-.46-8.07.44-12.3-3.09-2.76-5.73-5.89-7.8-9.26-3.49-5.66-5.42-12.06-5.34-18.67.07-6.63 2.18-13.36 6.76-19.59 2.7-3.69 6.29-7.2 10.84-10.42-.07-1.3-.07-2.58-.03-3.84.36-9.69 3.94-18.22 9.14-24.58 5.37-6.58 12.6-10.92 20.03-11.95h.04c.27-1.21.62-2.41 1.05-3.58 2.4-6.51 7.35-12.07 13.42-15.6 6.09-3.55 13.42-5.11 20.56-3.63 6.88 1.43 13.47 5.6 18.4 13.41 4.93-7.81 11.52-11.98 18.4-13.41 6.49-1.35 13.15-.18 18.89 2.71 5.66 2.86 10.5 7.44 13.47 12.95 1.18 2.19 2.07 4.51 2.62 6.92zm-46.02 4.16v128.75c.59.78 1 1.71 1.17 2.74 1.85 11.23 6.73 16.65 12.22 18.16 5.06 1.38 10.89-.24 15.53-3.57 4.55-3.26 7.81-8.06 7.85-13.09.05-5.72-4.14-12.21-15.36-17.94a6.219 6.219 0 0 1-2.7-8.36 6.21 6.21 0 0 1 8.36-2.71c12.44 6.36 18.89 14.18 21.16 22.04 4.11-1.28 8.1-4.37 11.09-8.71 3.69-5.35 5.8-12.54 4.79-20.6-.56-2.57.56-5.32 2.96-6.72 4.85-2.83 8.45-6.01 10.9-9.33 2.79-3.78 4.14-7.8 4.26-11.73.11-3.97-1.03-7.99-3.21-11.72-1.99-3.4-4.83-6.55-8.35-9.19a6.243 6.243 0 0 1-2.44-7.18c1.2-3.53 1.52-6.97 1.17-10.18-.56-5.07-2.8-9.71-5.96-13.44-3.17-3.75-7.22-6.56-11.38-7.97-2.18-.74-4.36-1.07-6.38-.93-1.07 3.69-3.04 7.41-6.08 11.03-2.21 2.62-6.13 2.96-8.75.75a6.21 6.21 0 0 1-.76-8.74c4.85-5.75 4.88-11.8 2.34-16.54-1.76-3.25-4.68-6-8.11-7.73-3.36-1.69-7.15-2.39-10.74-1.65-5.27 1.1-10.36 5.46-13.58 14.56zm31.76 42.21a6.227 6.227 0 0 1-1.37-8.68 6.227 6.227 0 0 1 8.68-1.37c1.29.94 2.48 1.91 3.57 2.89 8.3 7.46 12.83 17.32 13.65 27.53.83 10.09-1.99 20.54-8.36 29.29-.87 1.21-1.89 2.46-3.06 3.75-2.29 2.54-6.23 2.74-8.77.43a6.203 6.203 0 0 1-.44-8.77c.71-.8 1.45-1.71 2.18-2.72 4.58-6.3 6.61-13.79 6.03-21.01-.58-7.12-3.75-14.01-9.54-19.24-.82-.76-1.69-1.46-2.57-2.1zm-44.25-35.71-.04-.05-.04-.06-.11-.18-.01-.02-.25-.47-.03-.05-.01-.01-.02-.06-.09-.21-.03-.05-.03-.06v-.02l-.02-.05-.08-.2-.01-.03-.01-.04-.03-.11-.01-.03-.02-.06-.01-.05-.01-.03-.02-.06-.01-.06-.01-.01-.02-.08-.01-.05c-3-12.13-8.83-17.69-14.88-18.95-3.97-.83-8.19.12-11.78 2.21-3.64 2.12-6.57 5.37-7.95 9.12-1.85 5.01-.76 11.17 5.49 16.95 2.51 2.33 2.66 6.27.34 8.78-2.33 2.52-6.27 2.67-8.78.34-4.93-4.56-7.92-9.41-9.35-14.23-3.91.9-7.79 3.49-10.89 7.28-3.62 4.39-6.1 10.34-6.35 17.14-.07 1.8.03 3.7.3 5.67.32 2.36-.74 4.81-2.89 6.14-4.69 2.89-8.18 6.07-10.61 9.38-2.96 4.04-4.32 8.27-4.37 12.37-.05 4.12 1.23 8.24 3.53 11.99 1.94 3.15 4.6 6.01 7.79 8.38a6.238 6.238 0 0 1 2.36 7.13c-1.28 3.78-1.55 7.46-1.07 10.88.69 4.92 2.96 9.41 6.08 13.01 3.13 3.62 7.09 6.33 11.15 7.7 1.72.59 3.43.92 5.08.97 2.44-8.07 9.14-16.15 21.91-22.68 3.06-1.56 6.81-.35 8.37 2.71 1.56 3.05.35 6.8-2.71 8.36-11.81 6.03-16.25 12.99-16.24 19.05 0 4.71 2.69 9.15 6.62 12.2 3.99 3.11 9.15 4.71 13.97 3.71 6.06-1.26 11.9-6.84 14.89-19.01.19-.75.5-1.44.92-2.04V187.48zm-46.25 29.84a6.223 6.223 0 0 1 8.8.07c2.41 2.45 2.37 6.39-.07 8.8-5.5 5.4-8.37 12.39-8.67 19.54-.31 7.35 2.09 14.91 7.11 21.14 2.15 2.67 1.73 6.59-.95 8.75a6.234 6.234 0 0 1-8.75-.95c-6.95-8.63-10.27-19.15-9.84-29.44.42-10.21 4.52-20.2 12.37-27.91zm-48.62 140.57c-5.61-7.17-11.33-14.49-16.86-22.89-5.62-8.56-10.91-18.04-15.41-29.18-4.41-11.02-7.71-22.14-9.71-33.37-2-11.28-2.73-22.74-2-34.38v-.03c.74-11.56 2.92-23.27 6.7-35.1 3.75-11.78 9.04-23.58 16-35.36l.57-.87c8.9-13.35 19.3-24.43 30.72-33.36a134.777 134.777 0 0 1 39.26-21.32l.76-.22c10.92-3.72 22.12-6.03 33.32-7.01 11.85-1.04 23.83-.63 35.63 1.11 11.55 1.7 22.9 4.69 33.74 8.84 10.81 4.14 21.2 9.5 30.87 15.95 12.53 8.37 23.81 18.62 33.2 30.51 8.97 11.37 16.2 24.24 21.09 38.39h.04c2.64 7.68 4.79 15.87 6.22 24.53a140.55 140.55 0 0 1 1.86 26.85c-.25 9.65-1.53 19.62-4.02 29.81-2.34 9.51-5.76 19.27-10.43 29.2-9.56 20.39-25.92 40.64-41.95 60.47-8.32 10.31-16.57 20.52-23.56 30.4-2.31 3.29-6.35 4.65-10.04 3.72-21.99-1.69-95.08 8.83-122.11 11.34a9.436 9.436 0 0 1-9.95-6.89c-2.73-9.87-6.34-19.75-10.59-28.79-3.96-8.43-8.48-16.12-13.35-22.35zm-1.09-33.26c5.06 7.68 10.56 14.73 15.97 21.64 5.75 7.35 11.02 16.29 15.57 25.97 3.62 7.7 6.8 15.89 9.44 24.16l113.67-10.57c6.55-8.95 13.89-18.04 21.31-27.21 15.37-19.02 31.05-38.43 39.58-56.62 4.11-8.74 7.12-17.32 9.16-25.66 2.19-8.89 3.29-17.51 3.51-25.8.21-8.08-.39-15.88-1.63-23.38-1.23-7.38-3.12-14.54-5.49-21.42l.04-.01c-4.18-12.08-10.37-23.09-18.06-32.83-8.11-10.27-17.94-19.17-28.9-26.51-8.37-5.58-17.49-10.27-27.1-13.95-9.58-3.67-19.59-6.31-29.74-7.8-10.32-1.52-20.83-1.87-31.26-.96-9.86.86-19.55 2.83-28.82 5.98l-.74.28c-11.97 4.12-23.39 10.17-33.79 18.3-9.79 7.65-18.75 17.2-26.49 28.74l-.13.23c-6.3 10.66-11.03 21.14-14.3 31.43-3.27 10.24-5.16 20.44-5.81 30.58-.63 10.06.02 20.05 1.78 29.97 1.78 9.98 4.69 19.85 8.6 29.6 4 9.91 8.68 18.3 13.63 25.84zm157.09 79.94h.04-.04zm.05-.01c.03 0 .08-.01 0 0zM257.49 15.44c.38-4.64 2.57-8.66 5.84-11.44 3.19-2.73 7.46-4.25 11.98-3.96V0c.39.02.77.08 1.15.15 4.2.57 7.89 2.7 10.46 5.7 2.74 3.19 4.25 7.42 3.96 11.98h.05c-.02.3-.04.6-.09.85l-2.86 35.64h.04c-.01.38-.08.76-.14 1.15-.58 4.24-2.7 7.89-5.71 10.46a16.827 16.827 0 0 1-11.98 3.96v.04c-.38-.02-.76-.08-1.14-.14-4.25-.58-7.9-2.7-10.47-5.71a16.827 16.827 0 0 1-3.96-11.98h-.04c.02-.3.03-.6.09-.85l2.82-35.81zM70 67.85a16.903 16.903 0 0 1-4.69-11.93 16.7 16.7 0 0 1 5.09-11.74 16.86 16.86 0 0 1 11.93-4.69c4.27.06 8.54 1.79 11.74 5.09l25.41 26.41c3.19 3.34 4.75 7.66 4.69 11.93-.07 4.32-1.8 8.54-5.09 11.74a16.91 16.91 0 0 1-11.94 4.69c-4.31-.07-8.54-1.8-11.73-5.1L70 67.85zm-53.88 181.6c-4.52-.16-8.56-2.14-11.47-5.16A16.888 16.888 0 0 1 0 232.31c.08-4.61 2.07-8.78 5.18-11.73 3.11-2.95 7.31-4.73 11.97-4.6l36.6.77c4.62.08 8.78 2.06 11.73 5.17 2.96 3.12 4.73 7.32 4.61 11.97l-.02.26h.04l-.07.6c-.32 4.3-2.24 8.08-5.13 10.88-3.11 2.94-7.31 4.68-11.97 4.6l-.25-.02-.01.05-.38-.02-36.18-.79zm463.48-26.53.55-.01c4.37-.02 8.34 1.61 11.35 4.34 3.18 2.87 5.22 7 5.48 11.59l-.01.17c.05 0 .02.47.02.55.01 4.37-1.62 8.34-4.35 11.36-2.87 3.17-7 5.21-11.59 5.47l-36.57 1.84c-4.63.22-8.9-1.47-12.04-4.33-3.18-2.87-5.26-7-5.48-11.59a16.74 16.74 0 0 1 4.34-12.04c2.87-3.17 7-5.26 11.59-5.47 12.22-.66 24.49-1.4 36.71-1.88zM415.57 73.46c2.81-3.69 6.78-5.87 11-6.5 4.23-.57 8.66.44 12.4 3.21l.04.04a16.55 16.55 0 0 1 6.5 11.01c.58 4.22-.44 8.65-3.21 12.39l-22 29.29c-2.77 3.69-6.78 5.91-11.05 6.53-4.22.58-8.65-.43-12.4-3.2-3.69-2.77-5.91-6.83-6.53-11.05-.58-4.22.43-8.66 3.2-12.4l22.05-29.32zM313.62 422.3l-.26 6.79.03 2.36c.13 4.45-.06 8.94-.57 13.36l-2.57 9.67-126.67 11.8-1.91-5.14-3.82-20.36.22-5.82 135.55-12.66z"/></svg>