<svg width="100" height="82" viewBox="0 0 100 82" fill="none" xmlns="http://www.w3.org/2000/svg">
<path d="M86 12H14C7.37258 12 2 17.3726 2 24V64C2 70.6274 7.37258 76 14 76H86C92.6274 76 98 70.6274 98 64V24C98 17.3726 92.6274 12 86 12Z" fill="#A2765A" stroke="#CA9471" stroke-width="4"/>
<path d="M80 24H20C16.6863 24 14 26.6863 14 30V58C14 61.3137 16.6863 64 20 64H80C83.3137 64 86 61.3137 86 58V30C86 26.6863 83.3137 24 80 24Z" fill="#020202" stroke="#2A2A2A" stroke-width="2"/>
<path d="M59 74H41C39.3431 74 38 75.3431 38 77V79C38 80.6569 39.3431 82 41 82H59C60.6569 82 62 80.6569 62 79V77C62 75.3431 60.6569 74 59 74Z" fill="white"/>
<path d="M94 78C96.2091 78 98 76.2091 98 74C98 71.7909 96.2091 70 94 70C91.7909 70 90 71.7909 90 74C90 76.2091 91.7909 78 94 78Z" fill="white"/>
<path d="M6 78C8.20914 78 10 76.2091 10 74C10 71.7909 8.20914 70 6 70C3.79086 70 2 71.7909 2 74C2 76.2091 3.79086 78 6 78Z" fill="white"/>
<path d="M52 0H48V18H52V0Z" fill="white"/>
<path d="M41.7588 1L38 2.36808L42.1042 13.6444L45.863 12.2763L41.7588 1Z" fill="white"/>
<path d="M62.863 2.36808L59.1042 1L55 12.2763L58.7588 13.6444L62.863 2.36808Z" fill="white"/>
</svg>
